<svg xmlns="http://www.w3.org/2000/svg" xmlns:xlink="http://www.w3.org/1999/xlink" width="128" height="128" viewBox="0 0 128 128" fill="none"><g opacity="1"  transform="translate(0 0)  rotate(0)"><mask id="mask-0" fill="white"><path d="M64.02 0C28.68 0 0 28.64 0 63.98C0 99.36 28.68 128 63.98 128C99.36 128 128 99.32 128 63.98C128 28.64 99.36 0 64.02 0Z"  ></path></mask><path d="M64.02 0C28.68 0 0 28.64 0 63.98C0 99.36 28.68 128 63.98 128C99.36 128 128 99.32 128 63.98C128 28.64 99.36 0 64.02 0Z"  ></path><g mask="url(#mask-0)"><g opacity="1"  transform="translate(0 0)  rotate(0)"><g opacity="1"  transform="translate(0 0)  rotate(0)"><path id="Vector" fill-rule="evenodd" fill="url(#linear_1)" opacity="1" d="M64.02 0C28.68 0 0 28.64 0 63.98C0 99.36 28.68 128 63.98 128C99.36 128 128 99.32 128 63.98C128 28.64 99.36 0 64.02 0Z"></path><g opacity="1"  transform="translate(13.72998046875 42.96002197265625)  rotate(0)"><path id="Vector" fill-rule="evenodd" fill="url(#linear_2)" opacity="1" d="M44.4 15.1C14.34 18.31 -2.66 16.4 0.34 44.58C3.34 72.76 30.11 93.01 60.16 89.83C90.21 86.66 112.15 61.19 109.16 33.01C107.78 20.21 101.08 9.52 92.26 0.95C86.93 -4.23 60.8 13.37 44.4 15.1Z"></path></g><path id="Vector" fill-rule="evenodd" fill="url(#linear_3)" opacity="1" d="M84.1998 109.34L84.3698 109.23C84.4798 109.2 94.9898 103.7 104.44 97.95L104.72 97.77L104.83 97.49C104.86 97.38 104.9 97.31 104.93 97.21C105 97.03 105.08 96.85 105.15 96.64C106.31 93.29 107.3 86.1 107.76 82.14C107.93 80.7 108.07 79.75 108.07 79.75L108.18 78.76L108.14 78.76L108.21 77.95L96.9998 77.95L108.99 68.85L109.03 68.46C109.8 59.61 109.06 49.52 109.06 49.41L108.99 48.6L98.5198 48.6L109.06 39.57L109.03 39.15C108.6 28.74 103.81 22.01 103.63 21.72L103.38 21.23L46.8098 21.23C41.4498 21.23 31.0798 22.89 23.4598 31.42C20.1398 35.13 13.0198 46.31 13.0898 58.83C13.1298 65.89 13.8298 71.35 16.4798 77.49C17.8198 80.59 19.3298 83.45 20.9898 85.95C26.3498 95.58 32.2098 102.29 38.3798 105.88C43.5998 108.92 48.2598 109.34 52.0998 109.34L84.1998 109.34Z"></path><g opacity="1"  transform="translate(14.22021484375 22.1500244140625)  rotate(0)"><path id="Vector" fill-rule="evenodd" style="fill:#FFFFFF" opacity="1" d="M6.2002 59.54C18.8602 84.2 30.6802 85.54 39.4902 85.54C46.7602 85.54 69.5802 85.54 69.5802 85.54C69.5802 85.54 79.5602 80.11 89.0502 74.36L47.7102 66.63C47.7102 66.63 37.2002 67.65 6.2002 59.54Z"></path><path id="Vector" fill-rule="evenodd" fill="url(#linear_4)" opacity="1" d="M69.1301 84.69C70.2601 84.09 80.1301 78.97 88.4901 73.97L47.6801 67.33C47.5101 67.33 47.0801 67.37 46.3801 67.37C42.5301 67.37 31.2101 66.7 7.58008 60.63C12.8401 70.54 15.8701 75.27 25.0701 81.27C30.3601 84.73 35.6901 84.69 39.5001 84.69L69.1301 84.69Z"></path><path id="Vector" fill-rule="evenodd" style="fill:#FFFFFF" opacity="1" d="M93.2201 16.93C92.7301 6.94998 87.9301 0.849976 87.9301 0.849976L59.1501 0.849976C38.9001 0.849976 32.3401 0.849976 32.3401 0.849976C27.4701 0.849976 17.5601 1.90998 10.1201 10.27C2.6401 18.63 -3.9899 37.22 3.1701 54.57C10.4401 72.17 19.8901 74.43 25.2201 74.43C35.0601 74.43 89.0901 74.43 89.0901 74.43C89.2001 74.18 89.3101 73.94 89.3801 73.62C90.9301 68.43 92.2301 57.04 92.2301 57.04L78.4801 57.04L27.8301 57.04L27.8301 57C27.8301 57 22.7501 51.11 20.9801 46.63L78.4801 57L93.2201 45.86C93.1801 36.69 93.1501 27.94 93.1501 27.94L20.9801 27.94C20.9801 27.94 23.5201 20.64 28.1401 17.71L80.8001 27.55L93.2201 16.93Z"></path><path id="Vector" fill-rule="evenodd" fill="url(#linear_5)" opacity="1" d="M21.4301 11.25C20.4101 11.74 16.3901 29.98 16.3901 29.98L76.6701 29.98L92.1201 16.89L43.2001 6.70001C43.2001 6.70001 22.4601 10.76 21.4301 11.25Z"></path><path id="Vector" fill-rule="evenodd" fill="url(#linear_6)" opacity="1" d="M21.83 40.17C20.81 40.66 16.75 58.9 16.75 58.9L74.81 58.9L92.55 45.5L43.59 35.62C43.59 35.62 22.85 39.68 21.83 40.17Z"></path><path id="Vector" fill-rule="evenodd" fill="url(#linear_7)" opacity="1" d="M87.93 0L59.18 0C38.97 0 32.37 0 32.37 0C27.54 0 17.63 1.06 10.15 9.42C2.71 17.78 -4.27 36.51 3.2 53.72C10.65 70.93 19.18 73.58 27.12 73.58C28.88 73.58 89.34 73.58 89.34 73.58C91 68.89 92.27 56.19 92.27 56.19L27.86 56.19C27.86 56.19 22.78 50.3 21.02 45.82L93.22 45.82C93.92 37.04 93.22 27.13 93.18 27.13L21.02 27.13C21.02 27.13 23.59 19.79 28.18 16.9L93.15 16.9C92.72 6.63 87.93 0 87.93 0Z"></path></g></g><path id="Vector" fill-rule="evenodd" fill="url(#linear_8)" opacity="1" d="M19.4002 29.41C7.5502 47.79 7.6902 65.32 22.8202 86.87C6.1002 50.01 28.6102 32.06 48.5002 20.84C71.1502 8.03998 96.2602 17.98 96.2602 17.98C63.6702 -3.74002 30.6502 12.06 19.4002 29.41Z"></path></g></g><g mask="url(#mask-0)"><g opacity="1"  transform="translate(0 -0.03997802734375)  rotate(0)"><path id="Vector" fill-rule="evenodd" fill="url(#linear_9)" opacity="0.4" d="M0 63.95C-0.03 70.16 0.85 76.22 2.43 81.83C2.43 81.83 2.4 81.19 2.36 80.1C2.15 73.4 3.03 48.78 15.59 50.93C28.15 53.08 46.56 56.79 68.32 50.79C90.08 44.79 107.44 24.44 96.26 8.75C96.26 8.75 83.17 0 63.95 0C29.45 0 0.18 27.65 0 63.95Z"></path></g></g><g mask="url(#mask-0)"><path id="Vector" fill-rule="evenodd" style="fill:#FFFFFF" d="M39.7799 17.57C33.1199 19.01 26.6299 21.34 28.4999 27.83C29.6599 31.92 36.3999 34.11 43.0599 32.66C49.7299 31.22 55.0499 26.49 53.4999 22.51C50.3599 14.53 46.4499 16.16 39.7799 17.57Z"></path></g></g><defs><radialGradient id="linear_0" cx="19.741279781051308%" cy="16.039266272902488%" fx="19.741279781051308%" fy="16.039266272902488%" r="0.5554907853685007" gradientTransform="translate(0.19741279781051307 0.16039266272902486) scale(1 1) rotate(360) scale(1 0.9999998807907247) translate(-0.19741279781051307 -0.16039266272902486)" ><stop offset="0" stop-color="#77FFFF" stop-opacity="1" /><stop offset="0.3939000070095062" stop-color="#87E4FF" stop-opacity="1" /><stop offset="0.8605999946594238" stop-color="#6273FF" stop-opacity="1" /><stop offset="1" stop-color="#9468FF" stop-opacity="1" /></radialGradient><radialGradient id="linear_1" cx="19.741279781051308%" cy="16.039266272902488%" fx="19.741279781051308%" fy="16.039266272902488%" r="0.5554907853685007" gradientTransform="translate(0.19741279781051307 0.16039266272902486) scale(1 1) rotate(360) scale(1 0.9999998807907247) translate(-0.19741279781051307 -0.16039266272902486)" ><stop offset="0" stop-color="#77FFFF" stop-opacity="1" /><stop offset="0.3939000070095062" stop-color="#87E4FF" stop-opacity="1" /><stop offset="0.8605999946594238" stop-color="#6273FF" stop-opacity="1" /><stop offset="1" stop-color="#9468FF" stop-opacity="1" /></radialGradient><radialGradient id="linear_2" cx="50.21797906577752%" cy="47.82658657603873%" fx="50.21797906577752%" fy="47.82658657603873%" r="0.45768017592823984" gradientTransform="translate(0.5021797906577752 0.47826586576038727) scale(0.8239056931371652 1) rotate(353.9384301936214) scale(1 1.156275198433534) translate(-0.5021797906577752 -0.47826586576038727)" ><stop offset="0.4970000088214874" stop-color="#00FFFF" stop-opacity="1" /><stop offset="1" stop-color="#00F4FF" stop-opacity="0" /></radialGradient><linearGradient id="linear_3" x1="63.63582314841566%" y1="50.64779738379942%" x2="99.69218814624118%" y2="76.43570743344482%" gradientUnits="objectBoundingBox"><stop offset="0" stop-color="#5A27ED" stop-opacity="1" /><stop offset="1" stop-color="#AB37F4" stop-opacity="1" /></linearGradient><linearGradient id="linear_4" x1="3.9574219069339738%" y1="24.543239042897635%" x2="87.71978060260201%" y2="95.7651878439005%" gradientUnits="objectBoundingBox"><stop offset="2.054068062307124e-7" stop-color="#7618F4" stop-opacity="1" /><stop offset="0.503600001335144" stop-color="#575FF8" stop-opacity="1" /><stop offset="1" stop-color="#09FFFF" stop-opacity="1" /></linearGradient><linearGradient id="linear_5" x1="16.96595343156736%" y1="49.72696602974044%" x2="91.7092261974299%" y2="74.36257148637266%" gradientUnits="objectBoundingBox"><stop offset="2.054068062307124e-7" stop-color="#7F4CFF" stop-opacity="1" /><stop offset="1" stop-color="#3095FF" stop-opacity="1" /></linearGradient><linearGradient id="linear_6" x1="13.971148397190678%" y1="5.603941735688056%" x2="79.06663372650091%" y2="124.08137028813589%" gradientUnits="objectBoundingBox"><stop offset="2.054068062307124e-7" stop-color="#7F52FF" stop-opacity="1" /><stop offset="1" stop-color="#3096FF" stop-opacity="1" /></linearGradient><linearGradient id="linear_7" x1="81.04244065281188%" y1="81.04318962998224%" x2="57.49318033098652%" y2="51.108099218458456%" gradientUnits="objectBoundingBox"><stop offset="0" stop-color="#FFFFFF" stop-opacity="1" /><stop offset="0.15729999542236328" stop-color="#FBFFFF" stop-opacity="1" /><stop offset="0.3190999925136566" stop-color="#EFFFFF" stop-opacity="1" /><stop offset="0.4828999936580658" stop-color="#DAFFFF" stop-opacity="1" /><stop offset="0.6481000185012817" stop-color="#BDFFFE" stop-opacity="1" /><stop offset="0.8144000172615051" stop-color="#98FFFE" stop-opacity="1" /><stop offset="0.9794999957084656" stop-color="#6BFFFD" stop-opacity="1" /><stop offset="1" stop-color="#65FFFD" stop-opacity="1" /></linearGradient><linearGradient id="linear_8" x1="12.592788133150346%" y1="99.16702148140398%" x2="69.16322576347629%" y2="-6.043112790829319%" gradientUnits="objectBoundingBox"><stop offset="0" stop-color="#FFFFFF" stop-opacity="0" /><stop offset="0.5153999924659729" stop-color="#E6FFFF" stop-opacity="1" /><stop offset="1" stop-color="#CEFFFF" stop-opacity="0.5" /></linearGradient><linearGradient id="linear_9" x1="0.005814390778736326%" y1="50.00573262367575%" x2="99.98341418763516%" y2="50.00573262367575%" gradientUnits="objectBoundingBox"><stop offset="0" stop-color="#FFFFFF" stop-opacity="1" /><stop offset="0.8672000169754028" stop-color="#FFFFFF" stop-opacity="0.31" /><stop offset="1" stop-color="#FFFFFF" stop-opacity="0.2" /></linearGradient></defs></svg>